<svg xmlns="http://www.w3.org/2000/svg" viewBox="0 0 32 32">
  <rect width="32" height="32" rx="7" fill="#FFFFFF"/>
  <g transform="translate(16,16)" fill="#FFC93C">
    <ellipse cx="0" cy="-8.5" rx="2.3" ry="5"/>
    <ellipse cx="0" cy="-8.5" rx="2.3" ry="5" transform="rotate(30)"/>
    <ellipse cx="0" cy="-8.5" rx="2.3" ry="5" transform="rotate(60)"/>
    <ellipse cx="0" cy="-8.5" rx="2.3" ry="5" transform="rotate(90)"/>
    <ellipse cx="0" cy="-8.5" rx="2.3" ry="5" transform="rotate(120)"/>
    <ellipse cx="0" cy="-8.5" rx="2.3" ry="5" transform="rotate(150)"/>
    <ellipse cx="0" cy="-8.5" rx="2.3" ry="5" transform="rotate(180)"/>
    <ellipse cx="0" cy="-8.5" rx="2.3" ry="5" transform="rotate(210)"/>
    <ellipse cx="0" cy="-8.5" rx="2.3" ry="5" transform="rotate(240)"/>
    <ellipse cx="0" cy="-8.5" rx="2.3" ry="5" transform="rotate(270)"/>
    <ellipse cx="0" cy="-8.5" rx="2.3" ry="5" transform="rotate(300)"/>
    <ellipse cx="0" cy="-8.5" rx="2.3" ry="5" transform="rotate(330)"/>
  </g>
  <circle cx="16" cy="16" r="4.3" fill="#0B4F9E"/>
</svg>
